<?xml version="1.0" encoding="UTF-8" standalone="no"?>
<!-- Created with Inkscape (http://www.inkscape.org/) -->

<svg
   xmlns:dc="http://purl.org/dc/elements/1.1/"
   xmlns:cc="http://creativecommons.org/ns#"
   xmlns:rdf="http://www.w3.org/1999/02/22-rdf-syntax-ns#"
   xmlns:svg="http://www.w3.org/2000/svg"
   xmlns="http://www.w3.org/2000/svg"
   xmlns:sodipodi="http://sodipodi.sourceforge.net/DTD/sodipodi-0.dtd"
   xmlns:inkscape="http://www.inkscape.org/namespaces/inkscape"
   width="32px"
   height="32px"
   id="svg2985"
   version="1.1"
   inkscape:version="0.48.0 r9654"
   sodipodi:docname="pirate.svg"
   inkscape:export-filename="/home/jesse/.icons/Phoeton/source/pirate.png"
   inkscape:export-xdpi="90"
   inkscape:export-ydpi="90">
  <defs
     id="defs2987">
    <inkscape:path-effect
       effect="skeletal"
       id="path-effect3003"
       is_visible="true"
       pattern="M 0,0 0,10 10,5 z"
       copytype="single_stretched"
       prop_scale="1"
       scale_y_rel="false"
       spacing="0"
       normal_offset="0"
       tang_offset="0"
       prop_units="false"
       vertical_pattern="false"
       fuse_tolerance="0" />
    <inkscape:path-effect
       effect="skeletal"
       id="path-effect2999"
       is_visible="true"
       pattern="M 3.9999999,2.0000001 3.9999999,12 14,7.0000001 z"
       copytype="single_stretched"
       prop_scale="1"
       scale_y_rel="false"
       spacing="0"
       normal_offset="0"
       tang_offset="0"
       prop_units="false"
       vertical_pattern="false"
       fuse_tolerance="0" />
    <inkscape:path-effect
       effect="spiro"
       id="path-effect2997"
       is_visible="true" />
  </defs>
  <sodipodi:namedview
     id="base"
     pagecolor="#ffffff"
     bordercolor="#666666"
     borderopacity="1.0"
     inkscape:pageopacity="0.0"
     inkscape:pageshadow="2"
     inkscape:zoom="15.836083"
     inkscape:cx="8.7019805"
     inkscape:cy="11.518248"
     inkscape:current-layer="layer1"
     showgrid="true"
     inkscape:grid-bbox="true"
     inkscape:document-units="px"
     inkscape:snap-grids="true"
     inkscape:window-width="1366"
     inkscape:window-height="692"
     inkscape:window-x="0"
     inkscape:window-y="24"
     inkscape:window-maximized="1"
     objecttolerance="1"
     gridtolerance="1"
     guidetolerance="1">
    <inkscape:grid
       type="xygrid"
       id="grid2993"
       empspacing="5"
       visible="true"
       enabled="true"
       snapvisiblegridlinesonly="true" />
  </sodipodi:namedview>
  <metadata
     id="metadata2990">
    <rdf:RDF>
      <cc:Work
         rdf:about="">
        <dc:format>image/svg+xml</dc:format>
        <dc:type
           rdf:resource="http://purl.org/dc/dcmitype/StillImage" />
        <dc:title />
      </cc:Work>
    </rdf:RDF>
  </metadata>
  <g
     id="layer1"
     inkscape:label="Layer 1"
     inkscape:groupmode="layer">
    <path
       style="fill:#000000;fill-opacity:0.78431373000000004;stroke:#ffffff;stroke-width:0.86602539000000001;stroke-linecap:round;stroke-linejoin:round;stroke-miterlimit:4;stroke-opacity:1;stroke-dasharray:none"
       d="m 8.8905214,12.281644 c -0.2954394,0.919145 0.2179894,4.146943 0.7500002,5 0.5203694,0.834391 2.5362374,2.769898 2.6960814,4.294681 0.202501,1.931685 1.72618,3.241138 3.947196,3.330442 2.503349,-0.0893 3.477855,-1.732091 3.856722,-3.874912 0.368666,-1.821551 1.678337,-2.330744 2.25,-3.750211 0.553449,-1.374242 0.91842,-4.476855 0.75,-5 -2.231471,-6.9313854 -12,-7.0000002 -14.2499996,0 z"
       id="path3001"
       inkscape:connector-curvature="0"
       sodipodi:nodetypes="sssccsss"
       inkscape:export-xdpi="90"
       inkscape:export-ydpi="90" />
    <path
       style="fill:#000000;fill-opacity:0.78431373000000004;stroke:#ffffff;stroke-width:1;stroke-linecap:butt;stroke-linejoin:miter;stroke-miterlimit:4;stroke-opacity:1;stroke-dasharray:none"
       d="M 10.544613,20.820714 C 9.6034569,20.918754 8.1355105,20.506171 6.7873598,20.523014 2.8559897,20.572134 -0.40079038,23.771858 0.91069676,18 1.8946901,13.669443 3.4400285,17.572129 7.543835,18.829736 c 1.232235,0.377617 2.848624,0.997908 3.000778,1.990978 z"
       id="path3977-0"
       inkscape:connector-curvature="0"
       sodipodi:nodetypes="csssc" />
    <path
       style="fill:none;stroke:#ffffff;stroke-width:1px;stroke-linecap:butt;stroke-linejoin:miter;stroke-opacity:1"
       d="m 13.640073,19.823356 0,2.176644"
       id="path3782"
       inkscape:connector-curvature="0" />
    <path
       style="fill:none;stroke:#ffffff;stroke-width:1px;stroke-linecap:butt;stroke-linejoin:miter;stroke-opacity:1"
       d="m 15.201899,19.823356 0,2.176644"
       id="path3782-1"
       inkscape:connector-curvature="0" />
    <path
       style="fill:none;stroke:#ffffff;stroke-width:1px;stroke-linecap:butt;stroke-linejoin:miter;stroke-opacity:1"
       d="m 16.838767,19.823356 0,2.176644"
       id="path3782-4"
       inkscape:connector-curvature="0" />
    <path
       style="fill:none;stroke:#ffffff;stroke-width:1px;stroke-linecap:butt;stroke-linejoin:miter;stroke-opacity:1"
       d="m 18.450599,19.823356 0,2.176644"
       id="path3782-2"
       inkscape:connector-curvature="0" />
    <path
       sodipodi:type="spiral"
       style="fill:none;stroke:#ffffff;stroke-width:0.75000000000000000;stroke-linecap:butt;stroke-linejoin:miter;stroke-miterlimit:4;stroke-opacity:1;stroke-dasharray:none"
       id="path3818"
       sodipodi:cx="12"
       sodipodi:cy="12.442591"
       sodipodi:expansion="1"
       sodipodi:revolution="3"
       sodipodi:radius="3.2634909"
       sodipodi:argument="-18.018213"
       sodipodi:t0="0"
       d="m 12,12.442591 c 0.110265,0.120893 -0.108561,0.208279 -0.200932,0.183268 -0.250322,-0.06778 -0.276084,-0.393587 -0.165604,-0.585133 0.197623,-0.34263 0.670795,-0.362078 0.969333,-0.147939 0.438116,0.314257 0.450823,0.951836 0.130275,1.353533 -0.42724,0.535398 -1.234248,0.540752 -1.737733,0.112611 -0.633585,-0.538772 -0.631296,-1.517316 -0.09495,-2.121934 0.649591,-0.732274 1.800752,-0.722195 2.506134,-0.07728 0.831268,0.760008 0.813319,2.084419 0.05962,2.890334 -0.870179,0.93046 -2.368241,0.904593 -3.274534,0.04195 -1.0297892,-0.980185 -0.9959712,-2.652169 -0.02429,-3.658734 1.09008,-1.1292138 2.936178,-1.0874243 4.042935,-0.0066 1.22871,1.199892 1.178935,3.220245 -0.01104,4.427135"
       transform="matrix(0.53721362,-0.52335603,0.52335603,0.53721362,-0.41785905,13.330843)" />
    <path
       sodipodi:type="spiral"
       style="fill:none;stroke:#ffffff;stroke-width:0.75000000000000000;stroke-linecap:butt;stroke-linejoin:miter;stroke-miterlimit:4;stroke-opacity:1;stroke-dasharray:none"
       id="path3818-1"
       sodipodi:cx="12"
       sodipodi:cy="12.442591"
       sodipodi:expansion="1"
       sodipodi:revolution="3"
       sodipodi:radius="3.2634909"
       sodipodi:argument="-18.018213"
       sodipodi:t0="0"
       d="m 12,12.442591 c 0.110265,0.120893 -0.108561,0.208279 -0.200932,0.183268 -0.250322,-0.06778 -0.276084,-0.393587 -0.165604,-0.585133 0.197623,-0.34263 0.670795,-0.362078 0.969333,-0.147939 0.438116,0.314257 0.450823,0.951836 0.130275,1.353533 -0.42724,0.535398 -1.234248,0.540752 -1.737733,0.112611 -0.633585,-0.538772 -0.631296,-1.517316 -0.09495,-2.121934 0.649591,-0.732274 1.800752,-0.722195 2.506134,-0.07728 0.831268,0.760008 0.813319,2.084419 0.05962,2.890334 -0.870179,0.93046 -2.368241,0.904593 -3.274534,0.04195 -1.0297892,-0.980185 -0.9959712,-2.652169 -0.02429,-3.658734 1.09008,-1.1292138 2.936178,-1.0874243 4.042935,-0.0066 1.22871,1.199892 1.178935,3.220245 -0.01104,4.427135"
       transform="matrix(-0.54366754,-0.51664843,-0.51664843,0.54366754,32.420599,13.139735)" />
    <path
       style="fill:#000000;fill-opacity:0.78431373000000004;stroke:#ffffff;stroke-width:1;stroke-linecap:butt;stroke-linejoin:miter;stroke-miterlimit:4;stroke-opacity:1;stroke-dasharray:none"
       d="m 21.642436,21 c 0.941157,0.09804 2.285983,-0.493829 3.634133,-0.476986 C 29.20794,20.572134 32.46472,23.771858 31.153232,18 30.169239,13.669443 28.623901,17.572129 24.520094,18.829736 23.287859,19.207353 21.668297,20.385811 21.642436,21 z"
       id="path3977-0-3"
       inkscape:connector-curvature="0"
       sodipodi:nodetypes="csssc" />
    <path
       style="fill:#000000;fill-opacity:0.78431373000000004;stroke:#ffffff;stroke-width:1;stroke-linecap:butt;stroke-linejoin:miter;stroke-miterlimit:4;stroke-opacity:1;stroke-dasharray:none"
       d="m 11.214078,23.156774 c 0.54123,0.491825 -1.125922,0.830035 -2.098135,1.764164 -2.8350879,2.724033 -3.0236152,7.285756 -6.0133188,2.17733 -2.24313926,-3.832791 1.553054,-2.041719 5.4074797,-3.930158 1.1573555,-0.567035 2.1820991,-0.917231 2.7039741,-0.01134 z"
       id="path3977-0-7"
       inkscape:connector-curvature="0"
       sodipodi:nodetypes="csssc" />
    <path
       style="fill:#000000;fill-opacity:0.78431373000000004;stroke:#ffffff;stroke-width:1;stroke-linecap:butt;stroke-linejoin:miter;stroke-miterlimit:4;stroke-opacity:1;stroke-dasharray:none"
       d="m 20.901865,23.506183 c -0.54123,0.491825 1.125922,0.830035 2.098135,1.764164 2.835088,2.724033 3.023615,7.285756 6.013318,2.17733 2.24314,-3.832791 -1.553054,-2.041719 -5.407479,-3.930158 -1.157355,-0.567035 -2.182099,-0.917231 -2.703974,-0.01134 z"
       id="path3977-0-7-3"
       inkscape:connector-curvature="0"
       sodipodi:nodetypes="csssc" />
  </g>
</svg>
